<svg xmlns="http://www.w3.org/2000/svg" viewBox="0 0 64 64">
  <defs>
    <linearGradient id="bg" x1="0" y1="0" x2="1" y2="1">
      <stop offset="0%" stop-color="#c92a45" />
      <stop offset="100%" stop-color="#6f1730" />
    </linearGradient>
    <linearGradient id="board" x1="0" y1="0" x2="0" y2="1">
      <stop offset="0%" stop-color="#fff6e8" />
      <stop offset="100%" stop-color="#f2dcc0" />
    </linearGradient>
  </defs>
  <rect x="4" y="4" width="56" height="56" rx="14" fill="url(#bg)" />
  <rect x="15" y="12" width="30" height="40" rx="5" fill="url(#board)" stroke="#5b1326" stroke-width="2.5" />
  <rect x="22" y="8" width="16" height="8" rx="3" fill="#ffd36a" stroke="#5b1326" stroke-width="2" />
  <circle cx="22" cy="24" r="2.5" fill="#28a745" />
  <circle cx="22" cy="32" r="2.5" fill="#d6334c" />
  <circle cx="22" cy="40" r="2.5" fill="#f08c00" />
  <rect x="28" y="22.5" width="11" height="3" rx="1.5" fill="#7b1e35" />
  <rect x="28" y="30.5" width="11" height="3" rx="1.5" fill="#7b1e35" />
  <rect x="28" y="38.5" width="11" height="3" rx="1.5" fill="#7b1e35" />
  <circle cx="49" cy="47" r="11" fill="#ffb703" stroke="#5b1326" stroke-width="2.5" />
  <rect x="47.5" y="40.5" width="3" height="13" rx="1.5" fill="#5b1326" />
  <rect x="42.5" y="45.5" width="13" height="3" rx="1.5" fill="#5b1326" />
</svg>
